<?xml version="1.0" encoding="UTF-8" standalone="no"?>
<svg
   xmlns:dc="http://purl.org/dc/elements/1.1/"
   xmlns:cc="http://creativecommons.org/ns#"
   xmlns:rdf="http://www.w3.org/1999/02/22-rdf-syntax-ns#"
   xmlns:svg="http://www.w3.org/2000/svg"
   xmlns="http://www.w3.org/2000/svg"
   xmlns:sodipodi="http://sodipodi.sourceforge.net/DTD/sodipodi-0.dtd"
   xmlns:inkscape="http://www.inkscape.org/namespaces/inkscape"
   version="1.1"
   x="0px"
   y="0px"
   viewBox="0 0 24 24"
   enable-background="new 0 0 100 100"
   xml:space="preserve"
   id="svg2"
   inkscape:version="0.91 r13725"
   sodipodi:docname="cart-btn.svg"
   width="24"
   height="24"><metadata
     id="metadata20"><rdf:RDF><cc:Work
         rdf:about=""><dc:format>image/svg+xml</dc:format><dc:type
           rdf:resource="http://purl.org/dc/dcmitype/StillImage" /><dc:title></dc:title></cc:Work></rdf:RDF></metadata><defs
     id="defs18" /><sodipodi:namedview
     pagecolor="#ffffff"
     bordercolor="#666666"
     borderopacity="1"
     objecttolerance="10"
     gridtolerance="10"
     guidetolerance="10"
     inkscape:pageopacity="0"
     inkscape:pageshadow="2"
     inkscape:window-width="1920"
     inkscape:window-height="1037"
     id="namedview16"
     showgrid="false"
     inkscape:zoom="1.888"
     inkscape:cx="22.501"
     inkscape:cy="9.9999994"
     inkscape:window-x="0"
     inkscape:window-y="18"
     inkscape:window-maximized="1"
     inkscape:current-layer="svg2"
     fit-margin-top="0"
     fit-margin-left="0"
     fit-margin-right="0"
     fit-margin-bottom="0" /><path
     style="fill:#000000"
     d="m 10,2.9999988 c 1.666667,0 3.333333,0 5,0 0,1.5833333 0,3.1666667 0,4.75 -1.666667,0 -3.333333,0 -5,0 0,-1.5833333 0,-3.1666667 0,-4.75 z"
     id="rect6"
     inkscape:connector-curvature="0" /><path
     style="fill:#000000"
     d="m 10,10.124999 c 1.666667,0 3.333333,0 5,0 0,1.583333 0,3.166667 0,4.75 -1.666667,0 -3.333333,0 -5,0 0,-1.583333 0,-3.166667 0,-4.75 z"
     id="rect8"
     inkscape:connector-curvature="0" /><path
     style="fill:#000000"
     d="m 10,17.249999 c 1.666667,0 3.333333,0 5,0 0,1.583333 0,3.166667 0,4.75 -1.666667,0 -3.333333,0 -5,0 0,-1.583333 0,-3.166667 0,-4.75 z"
     id="rect10"
     inkscape:connector-curvature="0" /></svg>